<svg xmlns="http://www.w3.org/2000/svg" xmlns:xlink="http://www.w3.org/1999/xlink" contentStyleType="text/css" height="554px" preserveAspectRatio="none" style="width:998px;height:554px;background:#FFFFFF;" version="1.1" viewBox="0 0 998 554" width="998px" zoomAndPan="magnify"><defs/><g><!--cluster School--><g id="cluster_School"><path d="M8.5,79.69 L62.5,79.69 A3.75,3.75 0 0 1 65,82.19 L72,101.9869 L988.5,101.9869 A2.5,2.5 0 0 1 991,104.4869 L991,544.86 A2.5,2.5 0 0 1 988.5,547.36 L8.5,547.36 A2.5,2.5 0 0 1 6,544.86 L6,82.19 A2.5,2.5 0 0 1 8.5,79.69 " fill="none" style="stroke:#000000;stroke-width:1.5;"/><line style="stroke:#000000;stroke-width:1.5;" x1="6" x2="72" y1="101.9869" y2="101.9869"/><text fill="#000000" font-family="sans-serif" font-size="14" font-weight="bold" lengthAdjust="spacing" textLength="53" x="10" y="94.6851">School</text></g><!--cluster Persons--><g id="cluster_Persons"><path d="M32.5,122.69 L98.5,122.69 A3.75,3.75 0 0 1 101,125.19 L108,144.9869 L722.5,144.9869 A2.5,2.5 0 0 1 725,147.4869 L725,300.67 A2.5,2.5 0 0 1 722.5,303.17 L32.5,303.17 A2.5,2.5 0 0 1 30,300.67 L30,125.19 A2.5,2.5 0 0 1 32.5,122.69 " fill="none" style="stroke:#000000;stroke-width:1.5;"/><line style="stroke:#000000;stroke-width:1.5;" x1="30" x2="108" y1="144.9869" y2="144.9869"/><text fill="#000000" font-family="sans-serif" font-size="14" font-weight="bold" lengthAdjust="spacing" textLength="65" x="34" y="137.6851">Persons</text></g><!--cluster Courses--><g id="cluster_Courses"><path d="M751.5,122.69 L818.5,122.69 A3.75,3.75 0 0 1 821,125.19 L828,144.9869 L964.5,144.9869 A2.5,2.5 0 0 1 967,147.4869 L967,480.41 A2.5,2.5 0 0 1 964.5,482.91 L751.5,482.91 A2.5,2.5 0 0 1 749,480.41 L749,125.19 A2.5,2.5 0 0 1 751.5,122.69 " fill="none" style="stroke:#000000;stroke-width:1.5;"/><line style="stroke:#000000;stroke-width:1.5;" x1="749" x2="828" y1="144.9869" y2="144.9869"/><text fill="#000000" font-family="sans-serif" font-size="14" font-weight="bold" lengthAdjust="spacing" textLength="66" x="753" y="137.6851">Courses</text></g><!--cluster Registration--><g id="cluster_Registration"><path d="M242.5,335.17 L338.5,335.17 A3.75,3.75 0 0 1 341,337.67 L348,357.4669 L512.5,357.4669 A2.5,2.5 0 0 1 515,359.9669 L515,512.86 A2.5,2.5 0 0 1 512.5,515.36 L242.5,515.36 A2.5,2.5 0 0 1 240,512.86 L240,337.67 A2.5,2.5 0 0 1 242.5,335.17 " fill="none" style="stroke:#000000;stroke-width:1.5;"/><line style="stroke:#000000;stroke-width:1.5;" x1="240" x2="348" y1="357.4669" y2="357.4669"/><text fill="#000000" font-family="sans-serif" font-size="14" font-weight="bold" lengthAdjust="spacing" textLength="95" x="244" y="350.1651">Registration</text></g><!--class Person--><g id="elem_Person"><rect codeLine="5" fill="#F1F1F1" height="129.4844" id="Person" rx="2.5" ry="2.5" style="stroke:#181818;stroke-width:0.5;" width="223" x="486.5" y="157.69"/><ellipse cx="569.25" cy="173.69" fill="#A9DCDF" rx="11" ry="11" style="stroke:#181818;stroke-width:1.0;"/><path d="M569.3594,169.0338 L568.2031,174.1119 L570.5313,174.1119 L569.3594,169.0338 Z M567.875,166.7994 L570.8594,166.7994 L574.2188,179.19 L571.7656,179.19 L571,176.1275 L567.7188,176.1275 L566.9688,179.19 L564.5313,179.19 L567.875,166.7994 Z " fill="#000000"/><text fill="#000000" font-family="sans-serif" font-size="14" font-style="italic" lengthAdjust="spacing" textLength="49" x="589.75" y="178.5367">Person</text><line style="stroke:#181818;stroke-width:0.5;" x1="487.5" x2="708.5" y1="189.69" y2="189.69"/><polygon fill="none" points="497.5,198.3384,501.5,202.3384,497.5,206.3384,493.5,202.3384" style="stroke:#B38D22;stroke-width:1.0;"/><text fill="#000000" font-family="sans-serif" font-size="14" lengthAdjust="spacing" textLength="88" x="506.5" y="206.6851">name: String</text><polygon fill="none" points="497.5,214.6353,501.5,218.6353,497.5,222.6353,493.5,218.6353" style="stroke:#B38D22;stroke-width:1.0;"/><text fill="#000000" font-family="sans-serif" font-size="14" lengthAdjust="spacing" textLength="105" x="506.5" y="222.982">address: String</text><polygon fill="none" points="497.5,230.9322,501.5,234.9322,497.5,238.9322,493.5,234.9322" style="stroke:#B38D22;stroke-width:1.0;"/><text fill="#000000" font-family="sans-serif" font-size="14" lengthAdjust="spacing" textLength="120" x="506.5" y="239.2789">telephone: String</text><line style="stroke:#181818;stroke-width:0.5;" x1="487.5" x2="708.5" y1="246.5806" y2="246.5806"/><ellipse cx="497.5" cy="260.2291" fill="#84BE84" rx="3" ry="3" style="stroke:#038048;stroke-width:1.0;"/><text fill="#000000" font-family="sans-serif" font-size="14" lengthAdjust="spacing" textLength="122" x="506.5" y="263.5757">getName(): String</text><ellipse cx="497.5" cy="276.5259" fill="#84BE84" rx="3" ry="3" style="stroke:#038048;stroke-width:1.0;"/><text fill="#000000" font-family="sans-serif" font-size="14" lengthAdjust="spacing" textLength="197" x="506.5" y="279.8726">setName(name: String): void</text></g><!--class Student--><g id="elem_Student"><rect codeLine="14" fill="#F1F1F1" height="113.1875" id="Student" rx="2.5" ry="2.5" style="stroke:#181818;stroke-width:0.5;" width="194" x="46" y="165.84"/><ellipse cx="111.25" cy="181.84" fill="#ADD1B2" rx="11" ry="11" style="stroke:#181818;stroke-width:1.0;"/><path d="M114.2188,187.4806 Q113.6406,187.7775 113,187.9181 Q112.3594,188.0744 111.6563,188.0744 Q109.1563,188.0744 107.8281,186.4338 Q106.5156,184.7775 106.5156,181.6525 Q106.5156,178.5275 107.8281,176.8713 Q109.1563,175.215 111.6563,175.215 Q112.3594,175.215 113,175.3713 Q113.6563,175.5275 114.2188,175.8244 L114.2188,178.5431 Q113.5938,177.965 113,177.6994 Q112.4063,177.4181 111.7813,177.4181 Q110.4375,177.4181 109.75,178.4963 Q109.0625,179.5588 109.0625,181.6525 Q109.0625,183.7463 109.75,184.8244 Q110.4375,185.8869 111.7813,185.8869 Q112.4063,185.8869 113,185.6213 Q113.5938,185.34 114.2188,184.7619 L114.2188,187.4806 Z " fill="#000000"/><text fill="#000000" font-family="sans-serif" font-size="14" lengthAdjust="spacing" textLength="55" x="131.75" y="186.6867">Student</text><line style="stroke:#181818;stroke-width:0.5;" x1="47" x2="239" y1="197.84" y2="197.84"/><rect fill="none" height="6" style="stroke:#C82930;stroke-width:1.0;" width="6" x="54" y="208.4884"/><text fill="#000000" font-family="sans-serif" font-size="14" lengthAdjust="spacing" textLength="158" x="66" y="214.8351">studentNumber: String</text><rect fill="none" height="6" style="stroke:#C82930;stroke-width:1.0;" width="6" x="54" y="224.7853"/><text fill="#000000" font-family="sans-serif" font-size="14" lengthAdjust="spacing" textLength="105" x="66" y="231.132">dateBirth: Date</text><line style="stroke:#181818;stroke-width:0.5;" x1="47" x2="239" y1="238.4338" y2="238.4338"/><ellipse cx="57" cy="252.0822" fill="#84BE84" rx="3" ry="3" style="stroke:#038048;stroke-width:1.0;"/><text fill="#000000" font-family="sans-serif" font-size="14" lengthAdjust="spacing" textLength="150" x="66" y="255.4289">registerCourse(): void</text><ellipse cx="57" cy="268.3791" fill="#84BE84" rx="3" ry="3" style="stroke:#038048;stroke-width:1.0;"/><text fill="#000000" font-family="sans-serif" font-size="14" lengthAdjust="spacing" textLength="168" x="66" y="271.7257">unregisterCourse(): void</text></g><!--class Teacher--><g id="elem_Teacher"><rect codeLine="22" fill="#F1F1F1" height="113.1875" id="Teacher" rx="2.5" ry="2.5" style="stroke:#181818;stroke-width:0.5;" width="177" x="274.5" y="165.84"/><ellipse cx="330.25" cy="181.84" fill="#ADD1B2" rx="11" ry="11" style="stroke:#181818;stroke-width:1.0;"/><path d="M333.2188,187.4806 Q332.6406,187.7775 332,187.9181 Q331.3594,188.0744 330.6563,188.0744 Q328.1563,188.0744 326.8281,186.4338 Q325.5156,184.7775 325.5156,181.6525 Q325.5156,178.5275 326.8281,176.8713 Q328.1563,175.215 330.6563,175.215 Q331.3594,175.215 332,175.3713 Q332.6563,175.5275 333.2188,175.8244 L333.2188,178.5431 Q332.5938,177.965 332,177.6994 Q331.4063,177.4181 330.7813,177.4181 Q329.4375,177.4181 328.75,178.4963 Q328.0625,179.5588 328.0625,181.6525 Q328.0625,183.7463 328.75,184.8244 Q329.4375,185.8869 330.7813,185.8869 Q331.4063,185.8869 332,185.6213 Q332.5938,185.34 333.2188,184.7619 L333.2188,187.4806 Z " fill="#000000"/><text fill="#000000" font-family="sans-serif" font-size="14" lengthAdjust="spacing" textLength="57" x="350.75" y="186.6867">Teacher</text><line style="stroke:#181818;stroke-width:0.5;" x1="275.5" x2="450.5" y1="197.84" y2="197.84"/><rect fill="none" height="6" style="stroke:#C82930;stroke-width:1.0;" width="6" x="282.5" y="208.4884"/><text fill="#000000" font-family="sans-serif" font-size="14" lengthAdjust="spacing" textLength="112" x="294.5" y="214.8351">speciality: String</text><rect fill="none" height="6" style="stroke:#C82930;stroke-width:1.0;" width="6" x="282.5" y="224.7853"/><text fill="#000000" font-family="sans-serif" font-size="14" lengthAdjust="spacing" textLength="108" x="294.5" y="231.132">identifier: String</text><line style="stroke:#181818;stroke-width:0.5;" x1="275.5" x2="450.5" y1="238.4338" y2="238.4338"/><ellipse cx="285.5" cy="252.0822" fill="#84BE84" rx="3" ry="3" style="stroke:#038048;stroke-width:1.0;"/><text fill="#000000" font-family="sans-serif" font-size="14" lengthAdjust="spacing" textLength="136" x="294.5" y="255.4289">teachCourse(): void</text><ellipse cx="285.5" cy="268.3791" fill="#84BE84" rx="3" ry="3" style="stroke:#038048;stroke-width:1.0;"/><text fill="#000000" font-family="sans-serif" font-size="14" lengthAdjust="spacing" textLength="151" x="294.5" y="271.7257">assessStudent(): void</text></g><!--class Course--><g id="elem_Course"><rect codeLine="35" fill="#F1F1F1" height="129.4844" id="Course" rx="2.5" ry="2.5" style="stroke:#181818;stroke-width:0.5;" width="175" x="765.5" y="157.69"/><ellipse cx="823.75" cy="173.69" fill="#ADD1B2" rx="11" ry="11" style="stroke:#181818;stroke-width:1.0;"/><path d="M826.7188,179.3306 Q826.1406,179.6275 825.5,179.7681 Q824.8594,179.9244 824.1563,179.9244 Q821.6563,179.9244 820.3281,178.2838 Q819.0156,176.6275 819.0156,173.5025 Q819.0156,170.3775 820.3281,168.7213 Q821.6563,167.065 824.1563,167.065 Q824.8594,167.065 825.5,167.2213 Q826.1563,167.3775 826.7188,167.6744 L826.7188,170.3931 Q826.0938,169.815 825.5,169.5494 Q824.9063,169.2681 824.2813,169.2681 Q822.9375,169.2681 822.25,170.3463 Q821.5625,171.4088 821.5625,173.5025 Q821.5625,175.5963 822.25,176.6744 Q822.9375,177.7369 824.2813,177.7369 Q824.9063,177.7369 825.5,177.4713 Q826.0938,177.19 826.7188,176.6119 L826.7188,179.3306 Z " fill="#000000"/><text fill="#000000" font-family="sans-serif" font-size="14" lengthAdjust="spacing" textLength="50" x="844.25" y="178.5367">Course</text><line style="stroke:#181818;stroke-width:0.5;" x1="766.5" x2="939.5" y1="189.69" y2="189.69"/><ellipse cx="776.5" cy="203.3384" fill="none" rx="3" ry="3" style="stroke:#038048;stroke-width:1.0;"/><text fill="#000000" font-family="sans-serif" font-size="14" lengthAdjust="spacing" textLength="137" x="785.5" y="206.6851">courseName: String</text><ellipse cx="776.5" cy="219.6353" fill="none" rx="3" ry="3" style="stroke:#038048;stroke-width:1.0;"/><text fill="#000000" font-family="sans-serif" font-size="14" lengthAdjust="spacing" textLength="134" x="785.5" y="222.982">courseCode: String</text><ellipse cx="776.5" cy="235.9322" fill="none" rx="3" ry="3" style="stroke:#038048;stroke-width:1.0;"/><text fill="#000000" font-family="sans-serif" font-size="14" lengthAdjust="spacing" textLength="126" x="785.5" y="239.2789">description: String</text><line style="stroke:#181818;stroke-width:0.5;" x1="766.5" x2="939.5" y1="246.5806" y2="246.5806"/><ellipse cx="776.5" cy="260.2291" fill="#84BE84" rx="3" ry="3" style="stroke:#038048;stroke-width:1.0;"/><text fill="#000000" font-family="sans-serif" font-size="14" lengthAdjust="spacing" textLength="123" x="785.5" y="263.5757">addCourse(): void</text><ellipse cx="776.5" cy="276.5259" fill="#84BE84" rx="3" ry="3" style="stroke:#038048;stroke-width:1.0;"/><text fill="#000000" font-family="sans-serif" font-size="14" lengthAdjust="spacing" textLength="149" x="785.5" y="279.8726">removeCourse(): void</text></g><!--class Subject--><g id="elem_Subject"><rect codeLine="44" fill="#F1F1F1" height="64.2969" id="Subject" rx="2.5" ry="2.5" style="stroke:#181818;stroke-width:0.5;" width="187" x="764.5" y="402.62"/><ellipse cx="827.75" cy="418.62" fill="#B4A7E5" rx="11" ry="11" style="stroke:#181818;stroke-width:1.0;"/><path d="M823.6719,414.3856 L823.6719,412.2294 L831.0625,412.2294 L831.0625,414.3856 L828.5938,414.3856 L828.5938,422.4638 L831.0625,422.4638 L831.0625,424.62 L823.6719,424.62 L823.6719,422.4638 L826.1406,422.4638 L826.1406,414.3856 L823.6719,414.3856 Z " fill="#000000"/><text fill="#000000" font-family="sans-serif" font-size="14" font-style="italic" lengthAdjust="spacing" textLength="52" x="848.25" y="423.4667">Subject</text><line style="stroke:#181818;stroke-width:0.5;" x1="765.5" x2="950.5" y1="434.62" y2="434.62"/><line style="stroke:#181818;stroke-width:0.5;" x1="765.5" x2="950.5" y1="442.62" y2="442.62"/><ellipse cx="775.5" cy="456.2684" fill="#84BE84" rx="3" ry="3" style="stroke:#038048;stroke-width:1.0;"/><text fill="#000000" font-family="sans-serif" font-size="14" lengthAdjust="spacing" textLength="161" x="784.5" y="459.6151">getDescription(): String</text></g><!--class Registration--><g id="elem_Registration"><rect codeLine="52" fill="#F1F1F1" height="113.1875" id="Registration" rx="2.5" ry="2.5" style="stroke:#181818;stroke-width:0.5;" width="208" x="264" y="378.17"/><ellipse cx="322.25" cy="394.17" fill="#ADD1B2" rx="11" ry="11" style="stroke:#181818;stroke-width:1.0;"/><path d="M325.2188,399.8106 Q324.6406,400.1075 324,400.2481 Q323.3594,400.4044 322.6563,400.4044 Q320.1563,400.4044 318.8281,398.7638 Q317.5156,397.1075 317.5156,393.9825 Q317.5156,390.8575 318.8281,389.2013 Q320.1563,387.545 322.6563,387.545 Q323.3594,387.545 324,387.7013 Q324.6563,387.8575 325.2188,388.1544 L325.2188,390.8731 Q324.5938,390.295 324,390.0294 Q323.4063,389.7481 322.7813,389.7481 Q321.4375,389.7481 320.75,390.8263 Q320.0625,391.8888 320.0625,393.9825 Q320.0625,396.0763 320.75,397.1544 Q321.4375,398.2169 322.7813,398.2169 Q323.4063,398.2169 324,397.9513 Q324.5938,397.67 325.2188,397.0919 L325.2188,399.8106 Z " fill="#000000"/><text fill="#000000" font-family="sans-serif" font-size="14" lengthAdjust="spacing" textLength="83" x="342.75" y="399.0167">Registration</text><line style="stroke:#181818;stroke-width:0.5;" x1="265" x2="471" y1="410.17" y2="410.17"/><ellipse cx="275" cy="423.8184" fill="none" rx="3" ry="3" style="stroke:#038048;stroke-width:1.0;"/><text fill="#000000" font-family="sans-serif" font-size="14" lengthAdjust="spacing" textLength="153" x="284" y="427.1651">registrationDate: Date</text><polygon fill="none" points="275,435.1153,279,439.1153,275,443.1153,271,439.1153" style="stroke:#B38D22;stroke-width:1.0;"/><text fill="#000000" font-family="sans-serif" font-size="14" lengthAdjust="spacing" textLength="92" x="284" y="443.462">status: String</text><line style="stroke:#181818;stroke-width:0.5;" x1="265" x2="471" y1="450.7638" y2="450.7638"/><ellipse cx="275" cy="464.4122" fill="#84BE84" rx="3" ry="3" style="stroke:#038048;stroke-width:1.0;"/><text fill="#000000" font-family="sans-serif" font-size="14" lengthAdjust="spacing" textLength="182" x="284" y="467.7589">validateRegistration(): void</text><ellipse cx="275" cy="480.7091" fill="#84BE84" rx="3" ry="3" style="stroke:#038048;stroke-width:1.0;"/><text fill="#000000" font-family="sans-serif" font-size="14" lengthAdjust="spacing" textLength="175" x="284" y="484.0557">cancelRegistration(): void</text></g><!--link Student to Person--><g id="link_Student_Person"><path codeLine="30" d="M166.79,165.67 C188.1,122.94 223.84,67.48 274.5,41.69 C344.6,6 380.49,7.84 451.5,41.69 C501.63,65.59 530.9098,100.5207 555.8498,142.0307 " fill="none" id="Student-to-Person" style="stroke:#181818;stroke-width:1.0;"/><polygon fill="none" points="565.12,157.46,560.9929,138.9406,550.7067,145.1208,565.12,157.46" style="stroke:#181818;stroke-width:1.0;"/></g><!--link Teacher to Person--><g id="link_Teacher_Person"><path codeLine="31" d="M451.58,222.43 C463.12,222.43 456.65,222.43 468.19,222.43 " fill="none" id="Teacher-to-Person" style="stroke:#181818;stroke-width:1.0;"/><polygon fill="none" points="486.19,222.43,468.19,216.43,468.19,228.43,486.19,222.43" style="stroke:#181818;stroke-width:1.0;"/></g><!--link Course to Subject--><g id="link_Course_Subject"><path codeLine="48" d="M854.52,287.39 C855.43,325.47 856.1015,354.1051 856.8215,384.3451 " fill="none" id="Course-to-Subject" style="stroke:#181818;stroke-width:1.0;stroke-dasharray:7.0,7.0;"/><polygon fill="none" points="857.25,402.34,862.8199,384.2023,850.8232,384.4879,857.25,402.34" style="stroke:#181818;stroke-width:1.0;"/></g><!--link Student to Registration--><g id="link_Student_Registration"><path codeLine="61" d="M218.38,279.42 C235.7,292.18 254.76,304.07 274.5,311.17 C298.67,319.87 486.2,302.23 505.5,319.17 C524.745,336.07 529.5725,364.405 527.4137,388.67 C526.3344,400.8025 523.5084,411.9175 519.8648,420.0769 C518.9539,422.1167 517.9919,423.9718 516.9934,425.6119 C516.4941,426.432 515.9856,427.1983 515.4698,427.9071 C515.3409,428.0843 515.2115,428.2578 515.0817,428.4278 " fill="none" id="Student-Registration" style="stroke:#181818;stroke-width:1.0;"/><text fill="#000000" font-family="sans-serif" font-size="13" lengthAdjust="spacing" textLength="8" x="218.6333" y="298.9508">1</text><text fill="#000000" font-family="sans-serif" font-size="13" lengthAdjust="spacing" textLength="7" x="500.41" y="430.8169">*</text></g><!--link Registration to Student--><g id="link_Registration_Student"><path codeLine="63" d="M483.0035,334.767 C482.8095,334.4252 482.6129,334.0851 482.4134,333.7468 C479.2214,328.3347 475.3113,323.395 470.5,319.17 C451.2,302.23 263.67,319.87 239.5,311.17 C219.76,304.07 200.7,292.18 184.62,279.42 " fill="none" id="Registration-Student" style="stroke:#181818;stroke-width:1.0;"/><text fill="#000000" font-family="sans-serif" font-size="13" lengthAdjust="spacing" textLength="7" x="506.6" y="430.8169">*</text><text fill="#000000" font-family="sans-serif" font-size="13" lengthAdjust="spacing" textLength="8" x="180.9698" y="298.9508">1</text></g><!--link Course to Registration--><g id="link_Course_Registration"><path codeLine="62" d="M779.06,287.45 C766.98,295.6 754.51,303.7 742.5,311.17 C695.68,340.305 641.6625,370.705 596.975,393.9438 C574.6312,405.5631 554.62,415.3922 539.0072,422.3777 C531.2008,425.8704 524.494,428.6522 519.145,430.5915 C517.8078,431.0763 516.5554,431.5085 515.392,431.8859 " fill="none" id="Course-Registration" style="stroke:#181818;stroke-width:1.0;"/><text fill="#000000" font-family="sans-serif" font-size="13" lengthAdjust="spacing" textLength="8" x="762.5353" y="307.4558">1</text><text fill="#000000" font-family="sans-serif" font-size="13" lengthAdjust="spacing" textLength="7" x="500.43" y="445.8169">*</text></g><!--link Registration to Course--><g id="link_Registration_Course"><path codeLine="64" d="M515.1045,424.5663 C515.2524,424.4671 515.4017,424.3671 515.5526,424.2665 C515.8544,424.0651 516.1623,423.8609 516.4761,423.6539 C517.1039,423.2397 517.7558,422.8142 518.4311,422.3777 C529.2359,415.3922 546.0419,405.5631 566.2488,393.9438 C606.6625,370.705 660.68,340.305 707.5,311.17 C726.26,299.5 746.13,286.3 765.06,273.76 " fill="none" id="Registration-Course" style="stroke:#181818;stroke-width:1.0;"/><text fill="#000000" font-family="sans-serif" font-size="13" lengthAdjust="spacing" textLength="7" x="506.62" y="445.8169">*</text><text fill="#000000" font-family="sans-serif" font-size="13" lengthAdjust="spacing" textLength="8" x="749.4462" y="274.4619">1</text></g><!--link Student to Course--><g id="link_Student_Course"><path codeLine="66" d="M166.79,165.67 C188.1,122.94 223.84,67.48 274.5,41.69 C317.37,19.86 664.11,20.91 707.5,41.69 C757.46,65.61 795.73,115.97 820.45,157.48 " fill="none" id="Student-Course" style="stroke:#181818;stroke-width:1.0;"/><text fill="#000000" font-family="sans-serif" font-size="13" lengthAdjust="spacing" textLength="8" x="161.2019" y="154.9128">1</text><text fill="#000000" font-family="sans-serif" font-size="13" lengthAdjust="spacing" textLength="7" x="809.507" y="146.6297">*</text></g><!--reverse link Course to Student--><g id="link_Course_Student"><path codeLine="68" d="M814.3101,147.1698 C789.5901,105.6598 757.46,65.61 707.5,41.69 C664.11,20.91 317.37,19.86 274.5,41.69 C223.84,67.48 188.1,122.94 166.79,165.67 " fill="none" id="Course-backto-Student" style="stroke:#181818;stroke-width:1.0;"/><polygon fill="none" points="820.45,157.48,820.8168,150.2782,814.3101,147.1698,813.9433,154.3715,820.45,157.48" style="stroke:#181818;stroke-width:1.0;"/><text fill="#000000" font-family="sans-serif" font-size="13" lengthAdjust="spacing" textLength="7" x="170.116" y="154.9128">*</text></g><!--link Teacher to Course--><g id="link_Teacher_Course"><path codeLine="67" d="M385.4,165.6 C403.88,127.2 434.19,79.51 477.75,56.69 C501.22,44.39 692.28,45.39 716.25,56.69 C760.45,77.52 795.23,120.44 818.65,157.38 " fill="none" id="Teacher-Course" style="stroke:#181818;stroke-width:1.0;"/><text fill="#000000" font-family="sans-serif" font-size="13" lengthAdjust="spacing" textLength="8" x="379.6425" y="154.8343">1</text><text fill="#000000" font-family="sans-serif" font-size="13" lengthAdjust="spacing" textLength="7" x="817.2727" y="146.6297">*</text></g><!--reverse link Course to Teacher--><g id="link_Course_Teacher"><path codeLine="69" d="M816.0106,147.0202 C790.1206,101.1602 754.42,53.69 698.75,26.69 C678.41,16.82 515.22,16.08 495.25,26.69 C440.38,55.84 404.14,119.04 383.69,165.78 " fill="none" id="Course-backto-Teacher" style="stroke:#181818;stroke-width:1.0;"/><polygon fill="none" points="821.91,157.47,822.4436,150.2787,816.0106,147.0202,815.4771,154.2116,821.91,157.47" style="stroke:#181818;stroke-width:1.0;"/><text fill="#000000" font-family="sans-serif" font-size="13" lengthAdjust="spacing" textLength="7" x="386.7893" y="154.6357">*</text></g><!--SRC=[VLD1RiCW4Bpx5SYzj8qSgTSSScXoZggc7o1uOzCuOC4wKjNuxmK3CKvmELapoyxiCcufEz4Ao9xLKZRaDykoraCVeBGKsc3477hGg2X3mXggjISzPyyJ4VGCAx97nKKLmRGi5MYTO10QQ6ifnbitSa4gm9rf-FpoS751jETYHLDtaRmSgdhNo3dTOrU2mCXgGRJ3Tjtv0Ef1e20bHNZd2kiLsPhFs9U2Yci4jP6TqeEzcwmhwCG_9HDdNq1P3Mhgh0N6QSFn9s6BMzFyo2FFaJ3QThEsZA1v1R-CbAUmf-AwTeyxeC7ZYFPZGfnOI8WRoc7HJ0l21cYNYaSWDx9CaILefdYBN8hKn2PQi_CgECiBp3y15-Q5ZfIPw7U7Rs0uiMpIjnsrxqBeE_X9bylhElI8b_Cvf41Hss2oeGGHHyiHDdO-VECFev5YfrERk9Z8sD36lHDBOLGmQ6QBUki_v21_oqbHaFmrdpZE_DXpz6GwozeYK-lRplAkRLBUKo6AZuot93qQfEvWVp_h_m00]--></g></svg>